<svg xmlns="http://www.w3.org/2000/svg" xmlns:xlink="http://www.w3.org/1999/xlink" viewBox="0 0 375 600"><defs><style>.cls-1{fill:url(#linear-gradient);}.cls-2{fill:url(#linear-gradient-2);}.cls-3{fill:url(#linear-gradient-3);}.cls-4{fill:url(#linear-gradient-4);}.cls-5{fill:#f2f2f2;}.cls-6{fill:url(#linear-gradient-5);}.cls-7{fill:#231f20;}.cls-8{fill:url(#linear-gradient-7);}.cls-9{mask:url(#mask);}.cls-10{fill:url(#linear-gradient-8);}.cls-11{mask:url(#mask-2);}.cls-12{fill:url(#linear-gradient-9);}.cls-13{mask:url(#mask-3);}.cls-14{fill:url(#linear-gradient-10);}.cls-15{mask:url(#mask-4);}.cls-16{fill:url(#linear-gradient-11);}</style><linearGradient id="linear-gradient" x1="153.38" y1="275.87" x2="299.4" y2="421.89" gradientUnits="userSpaceOnUse"><stop offset="0" stop-color="#25a9e0"/><stop offset="1" stop-color="#1b75bb"/></linearGradient><linearGradient id="linear-gradient-2" x1="215.94" y1="364.7" x2="38.06" y2="186.82" xlink:href="#linear-gradient"/><linearGradient id="linear-gradient-3" x1="139.46" y1="273.39" x2="229.59" y2="344.07" xlink:href="#linear-gradient"/><linearGradient id="linear-gradient-4" x1="162.44" y1="311.21" x2="-15.44" y2="133.33" xlink:href="#linear-gradient"/><linearGradient id="linear-gradient-5" x1="127.17" y1="308.58" x2="231" y2="308.58" gradientUnits="userSpaceOnUse"><stop offset="0" stop-color="#1b75bb"/><stop offset="1" stop-color="#0073b4"/></linearGradient><linearGradient id="linear-gradient-7" x1="205.2" y1="327.18" x2="292.09" y2="410.18" xlink:href="#linear-gradient"/><mask id="mask" x="83.51" y="178.94" width="194.6" height="217.52" maskUnits="userSpaceOnUse"><path class="cls-1" d="M231,220.7c-25.62,25.62-44.85,68.15-44.85,68.15a2.59,2.59,0,0,1,3.67,0L216,315,134.5,396.46h50.88s92.72,0,92.72-93.7C278.11,255.69,254.49,232.32,231,220.7Z"/></mask><linearGradient id="linear-gradient-8" x1="113.19" y1="200.6" x2="248.97" y2="358.61" gradientUnits="userSpaceOnUse"><stop offset="0" stop-color="#2b388f"/><stop offset="0.18" stop-color="#294897" stop-opacity="0.87"/><stop offset="0.38" stop-color="#285ca6" stop-opacity="0.69"/><stop offset="0.8" stop-color="#268fcc" stop-opacity="0.23"/><stop offset="1" stop-color="#25a9e0" stop-opacity="0"/></linearGradient><mask id="mask-2" x="91.36" y="209.07" width="200.01" height="213.54" maskUnits="userSpaceOnUse"><path class="cls-2" d="M181.17,317.44a2.59,2.59,0,0,1-1.83-.76l-25.83-25.83L226,218.4a116.94,116.94,0,0,0-41.39-9.16l-93.21-.16V396.46h35.8C180,343.47,183,316.68,183,316.68A2.59,2.59,0,0,1,181.17,317.44Z"/></mask><linearGradient id="linear-gradient-9" x1="154.45" y1="285.68" x2="242.16" y2="373.4" gradientUnits="userSpaceOnUse"><stop offset="0" stop-color="#1b75bb"/><stop offset="0.13" stop-color="#1c79be" stop-opacity="0.92"/><stop offset="0.37" stop-color="#1e85c6" stop-opacity="0.69"/><stop offset="0.71" stop-color="#2297d3" stop-opacity="0.34"/><stop offset="1" stop-color="#25a9e0" stop-opacity="0"/></linearGradient><mask id="mask-3" x="134.5" y="209.07" width="143.6" height="187.39" maskUnits="userSpaceOnUse"><path class="cls-3" d="M231,220.7c-25.62,25.62-44.85,68.15-44.85,68.15a2.59,2.59,0,0,1,3.67,0L216,315,134.5,396.46h50.88s92.72,0,92.72-93.7C278.11,255.69,254.49,232.32,231,220.7Z"/></mask><linearGradient id="linear-gradient-10" x1="199" y1="250.65" x2="236.61" y2="266.86" gradientUnits="userSpaceOnUse"><stop offset="0" stop-color="#2b388f"/><stop offset="0.02" stop-color="#2b3c92" stop-opacity="0.96"/><stop offset="0.19" stop-color="#2961ad" stop-opacity="0.64"/><stop offset="0.36" stop-color="#287ec2" stop-opacity="0.38"/><stop offset="0.52" stop-color="#2792d1" stop-opacity="0.19"/><stop offset="0.66" stop-color="#269fda" stop-opacity="0.08"/><stop offset="0.77" stop-color="#26a3dd" stop-opacity="0.04"/><stop offset="0.85" stop-color="#25a7df" stop-opacity="0.02"/><stop offset="1" stop-color="#25a9e0" stop-opacity="0"/></linearGradient><mask id="mask-4" x="91.36" y="209.07" width="134.6" height="187.39" maskUnits="userSpaceOnUse"><path class="cls-4" d="M181.17,317.44a2.59,2.59,0,0,1-1.83-.76l-25.83-25.83L226,218.4a116.94,116.94,0,0,0-41.39-9.16l-93.21-.16V396.46h35.8C180,343.47,183,316.68,183,316.68A2.59,2.59,0,0,1,181.17,317.44Z"/></mask><linearGradient id="linear-gradient-11" x1="166.89" y1="358.33" x2="144.19" y2="348.6" xlink:href="#linear-gradient-9"/></defs><title>guide</title><g id="Layer_2" data-name="Layer 2"><g id="Layer_3" data-name="Layer 3"><polygon class="cls-5" points="176.25 346.56 0 528 0 600 375 600 375 67 152.97 292.24 176.25 346.56"/><path class="cls-6" d="M186.14,288.86S205.37,246.33,231,220.7l-70.15,70.15L183,313s1.71,2,0,3.67c0,0-3,26.79-55.83,79.79L208.63,315l-22.48-22.48A2.31,2.31,0,0,1,186.14,288.86Z"/><path class="cls-7" d="M183,316.68a2.55,2.55,0,0,0,.56-.84A2.58,2.58,0,0,1,183,316.68Z"/><path class="cls-4" d="M181.17,317.44a2.59,2.59,0,0,1-1.83-.76l-25.83-25.83L226,218.4a116.94,116.94,0,0,0-41.39-9.16l-93.21-.16V396.46h35.8C180,343.47,183,316.68,183,316.68A2.59,2.59,0,0,1,181.17,317.44Z"/><path class="cls-7" d="M183.75,314.79a2.73,2.73,0,0,0-.12-.61A2.6,2.6,0,0,1,183.75,314.79Z"/><path class="cls-8" d="M231,220.7c-25.62,25.62-44.85,68.15-44.85,68.15a2.59,2.59,0,0,1,3.67,0L216,315,134.5,396.46h50.88s92.72,0,92.72-93.7C278.11,255.69,254.49,232.32,231,220.7Z"/><path class="cls-7" d="M186.14,292.52a2.59,2.59,0,0,1,0-3.67A2.31,2.31,0,0,0,186.14,292.52Z"/><path class="cls-7" d="M183.58,315.79a2.21,2.21,0,0,0,.17-.86A2.59,2.59,0,0,1,183.58,315.79Z"/><path class="cls-7" d="M183,313a2.49,2.49,0,0,1,.34.51A4.06,4.06,0,0,0,183,313Z"/><g class="cls-9"><circle class="cls-10" cx="162.25" cy="257.68" r="78.74"/></g><g class="cls-11"><circle class="cls-12" cx="212.64" cy="343.87" r="78.74"/></g><g class="cls-13"><path class="cls-14" d="M231,209.07s-63.59,61.41-64.63,77.63,48.1,10,53.82,2.15C234,269.86,231,209.07,231,209.07Z"/></g><g class="cls-15"><path class="cls-16" d="M183,313s1.62,36.66-37.33,72.29-22.75-48.88-22.75-48.88Z"/></g><rect class="cls-5" width="5" height="5"/></g></g></svg>