<svg xmlns="http://www.w3.org/2000/svg" xmlns:xlink="http://www.w3.org/1999/xlink" viewBox="0 0 267.87 314"><defs><style>.cls-1{fill:url(#linear-gradient);}.cls-2{fill:url(#linear-gradient-2);}.cls-3{fill:url(#linear-gradient-3);}.cls-4{fill:url(#linear-gradient-4);}.cls-5{fill:url(#linear-gradient-5);}.cls-6{fill:#231f20;}.cls-7{fill:url(#linear-gradient-7);}.cls-8{mask:url(#mask);}.cls-9{fill:url(#linear-gradient-8);}.cls-10{mask:url(#mask-2);}.cls-11{fill:url(#linear-gradient-9);}.cls-12{mask:url(#mask-3);}.cls-13{fill:url(#linear-gradient-10);}.cls-14{mask:url(#mask-4);}.cls-15{fill:url(#linear-gradient-11);}</style><linearGradient id="linear-gradient" x1="90.04" y1="124.91" x2="278.21" y2="313.08" gradientUnits="userSpaceOnUse"><stop offset="0" stop-color="#25a9e0"/><stop offset="1" stop-color="#1b75bb"/></linearGradient><linearGradient id="linear-gradient-2" x1="170.65" y1="239.38" x2="-58.57" y2="10.15" xlink:href="#linear-gradient"/><linearGradient id="linear-gradient-3" x1="72.1" y1="121.71" x2="188.24" y2="212.79" xlink:href="#linear-gradient"/><linearGradient id="linear-gradient-4" x1="101.72" y1="170.44" x2="-127.51" y2="-58.78" xlink:href="#linear-gradient"/><linearGradient id="linear-gradient-5" x1="56.26" y1="167.06" x2="190.06" y2="167.06" gradientUnits="userSpaceOnUse"><stop offset="0" stop-color="#1b75bb"/><stop offset="1" stop-color="#0073b4"/></linearGradient><linearGradient id="linear-gradient-7" x1="156.82" y1="191.03" x2="268.79" y2="297.98" xlink:href="#linear-gradient"/><mask id="mask" x="0" y="0" width="250.77" height="280.31" maskUnits="userSpaceOnUse"><path class="cls-1" d="M190.06,53.81c-33,33-57.8,87.83-57.8,87.83a3.34,3.34,0,0,1,4.73,0l33.7,33.7-105,105h65.57s119.49,0,119.49-120.74C250.77,98.9,220.34,68.78,190.06,53.81Z"/></mask><linearGradient id="linear-gradient-8" x1="38.25" y1="27.9" x2="213.23" y2="231.53" gradientUnits="userSpaceOnUse"><stop offset="0" stop-color="#2b388f"/><stop offset="0.18" stop-color="#294897" stop-opacity="0.87"/><stop offset="0.38" stop-color="#285ca6" stop-opacity="0.69"/><stop offset="0.8" stop-color="#268fcc" stop-opacity="0.23"/><stop offset="1" stop-color="#25a9e0" stop-opacity="0"/></linearGradient><mask id="mask-2" x="10.12" y="38.82" width="257.74" height="275.18" maskUnits="userSpaceOnUse"><path class="cls-2" d="M125.85,178.47a3.33,3.33,0,0,1-2.36-1L90.21,144.21l93.37-93.37A150.7,150.7,0,0,0,130.24,39L10.12,38.82V280.31H56.26c68.14-68.29,72-102.82,72-102.82A3.33,3.33,0,0,1,125.85,178.47Z"/></mask><linearGradient id="linear-gradient-9" x1="91.42" y1="137.55" x2="204.45" y2="250.58" gradientUnits="userSpaceOnUse"><stop offset="0" stop-color="#1b75bb"/><stop offset="0.13" stop-color="#1c79be" stop-opacity="0.92"/><stop offset="0.37" stop-color="#1e85c6" stop-opacity="0.69"/><stop offset="0.71" stop-color="#2297d3" stop-opacity="0.34"/><stop offset="1" stop-color="#25a9e0" stop-opacity="0"/></linearGradient><mask id="mask-3" x="65.71" y="38.82" width="185.06" height="241.49" maskUnits="userSpaceOnUse"><path class="cls-3" d="M190.06,53.81c-33,33-57.8,87.83-57.8,87.83a3.34,3.34,0,0,1,4.73,0l33.7,33.7-105,105h65.57s119.49,0,119.49-120.74C250.77,98.9,220.34,68.78,190.06,53.81Z"/></mask><linearGradient id="linear-gradient-10" x1="148.83" y1="92.41" x2="197.29" y2="113.3" gradientUnits="userSpaceOnUse"><stop offset="0" stop-color="#2b388f"/><stop offset="0.02" stop-color="#2b3c92" stop-opacity="0.96"/><stop offset="0.19" stop-color="#2961ad" stop-opacity="0.64"/><stop offset="0.36" stop-color="#287ec2" stop-opacity="0.38"/><stop offset="0.52" stop-color="#2792d1" stop-opacity="0.19"/><stop offset="0.66" stop-color="#269fda" stop-opacity="0.08"/><stop offset="0.77" stop-color="#26a3dd" stop-opacity="0.04"/><stop offset="0.85" stop-color="#25a7df" stop-opacity="0.02"/><stop offset="1" stop-color="#25a9e0" stop-opacity="0"/></linearGradient><mask id="mask-4" x="10.12" y="38.82" width="173.46" height="241.49" maskUnits="userSpaceOnUse"><path class="cls-4" d="M125.85,178.47a3.33,3.33,0,0,1-2.36-1L90.21,144.21l93.37-93.37A150.7,150.7,0,0,0,130.24,39L10.12,38.82V280.31H56.26c68.14-68.29,72-102.82,72-102.82A3.33,3.33,0,0,1,125.85,178.47Z"/></mask><linearGradient id="linear-gradient-11" x1="107.44" y1="231.17" x2="78.2" y2="218.63" xlink:href="#linear-gradient-9"/></defs><title>logo</title><g id="Layer_2" data-name="Layer 2"><g id="Layer_3" data-name="Layer 3"><path class="cls-5" d="M132.26,141.64S157,86.83,190.06,53.81l-90.4,90.4,28.55,28.55s2.2,2.53,0,4.73c0,0-3.81,34.53-72,102.82l105-105-29-29S129.61,144.29,132.26,141.64Z"/><path class="cls-6" d="M128.21,177.49a3.29,3.29,0,0,0,.72-1.09A3.33,3.33,0,0,1,128.21,177.49Z"/><path class="cls-4" d="M125.85,178.47a3.33,3.33,0,0,1-2.36-1L90.21,144.21l93.37-93.37A150.7,150.7,0,0,0,130.24,39L10.12,38.82V280.31H56.26c68.14-68.29,72-102.82,72-102.82A3.33,3.33,0,0,1,125.85,178.47Z"/><path class="cls-6" d="M129.18,175.06a3.52,3.52,0,0,0-.15-.79A3.36,3.36,0,0,1,129.18,175.06Z"/><path class="cls-7" d="M190.06,53.81c-33,33-57.8,87.83-57.8,87.83a3.34,3.34,0,0,1,4.73,0l33.7,33.7-105,105h65.57s119.49,0,119.49-120.74C250.77,98.9,220.34,68.78,190.06,53.81Z"/><path class="cls-6" d="M132.26,146.37a3.34,3.34,0,0,1,0-4.73C129.61,144.29,132.26,146.37,132.26,146.37Z"/><path class="cls-6" d="M129,176.35a2.85,2.85,0,0,0,.22-1.11A3.34,3.34,0,0,1,129,176.35Z"/><path class="cls-6" d="M128.21,172.77a3.21,3.21,0,0,1,.44.66A5.23,5.23,0,0,0,128.21,172.77Z"/><g class="cls-8"><circle class="cls-9" cx="101.46" cy="101.46" r="101.46"/></g><g class="cls-10"><circle class="cls-11" cx="166.4" cy="212.54" r="101.46"/></g><g class="cls-12"><path class="cls-13" d="M190.06,38.82s-81.94,79.13-83.29,100,62,12.88,69.35,2.77C194,117.16,190.06,38.82,190.06,38.82Z"/></g><g class="cls-14"><path class="cls-15" d="M128.21,172.77S130.31,220,80.1,265.92s-29.31-63-29.31-63Z"/></g></g></g></svg>